HIERARCHY
ROOT Hips
{
	OFFSET -3.958830 18.904000 13.208200
	CHANNELS 6 Xposition Yposition Zposition Zrotation Yrotation Xrotation 
	JOINT LHipJoint
	{
		OFFSET 0.000000 0.000000 0.000000
		CHANNELS 3 Zrotation Yrotation Xrotation
		JOINT LeftUpLeg
		{
			OFFSET 1.800000 -1.400000 0.085000
			CHANNELS 3 Zrotation Yrotation Xrotation
			JOINT LeftLeg
			{
				OFFSET 2.215000 -6.000000 0.000000
				CHANNELS 3 Zrotation Yrotation Xrotation
				JOINT LeftFoot
				{
					OFFSET 2.500000 -6.900000 0.000000
					CHANNELS 3 Zrotation Yrotation Xrotation
					JOINT LeftToeBase
					{
						OFFSET 0.200000 -0.500000 1.950000
						CHANNELS 3 Zrotation Yrotation Xrotation
						End Site
						{
							OFFSET 0.000000 0.000000 0.000000
						}
					}
				}
			}
		}
	}
	JOINT RHipJoint
	{
		OFFSET 0.000000 0.000000 0.000000
		CHANNELS 3 Zrotation Yrotation Xrotation
		JOINT RightUpLeg
		{
			OFFSET -1.800000 -1.400000 0.085000
			CHANNELS 3 Zrotation Yrotation Xrotation
			JOINT RightLeg
			{
				OFFSET -2.215000 -6.000000 0.000000
				CHANNELS 3 Zrotation Yrotation Xrotation
				JOINT RightFoot
				{
					OFFSET -2.500000 -6.900000 0.000000
					CHANNELS 3 Zrotation Yrotation Xrotation
					JOINT RightToeBase
					{
						OFFSET -0.200000 -0.500000 1.950000
						CHANNELS 3 Zrotation Yrotation Xrotation
						End Site
						{
							OFFSET 0.000000 0.000000 0.000000
						}
					}
				}
			}
		}
	}
	JOINT LowerBack
	{
		OFFSET 0.000000 0.000000 0.000000
		CHANNELS 3 Zrotation Yrotation Xrotation
		JOINT Spine
		{
			OFFSET -0.087000 1.940000 -0.288900
			CHANNELS 3 Zrotation Yrotation Xrotation
			JOINT Spine1
			{
				OFFSET 0.000000 1.950000 0.060000
				CHANNELS 3 Zrotation Yrotation Xrotation
				JOINT Neck
				{
					OFFSET 0.000000 0.000000 0.000000
					CHANNELS 3 Zrotation Yrotation Xrotation
					JOINT Neck1
					{
						OFFSET 0.000000 1.600000 0.340000
						CHANNELS 3 Zrotation Yrotation Xrotation
						JOINT Head
						{
							OFFSET 0.000000 1.667000 -0.240000
							CHANNELS 3 Zrotation Yrotation Xrotation
							End Site
							{
								OFFSET 0.000000 0.000000 0.000000
							}
						}
					}
				}
				JOINT LeftShoulder
				{
					OFFSET 0.000000 0.000000 0.000000
					CHANNELS 3 Zrotation Yrotation Xrotation
					JOINT LeftArm
					{
						OFFSET 2.700000 1.550000 -0.730000
						CHANNELS 3 Zrotation Yrotation Xrotation
						JOINT LeftForeArm
						{
							OFFSET 5.450000 0.000000 0.000000
							CHANNELS 3 Zrotation Yrotation Xrotation
							JOINT LeftHand
							{
								OFFSET 3.450000 0.000000 0.000000
								CHANNELS 3 Zrotation Yrotation Xrotation
								JOINT LeftHandIndex1
								{
									OFFSET 0.750000 0.000000 0.000000
									CHANNELS 3 Zrotation Yrotation Xrotation
									End Site
									{
										OFFSET 0.000000 0.000000 0.000000
									}
								}
							}
						}
					}
				}
				JOINT RightShoulder
				{
					OFFSET 0.000000 0.000000 0.000000
					CHANNELS 3 Zrotation Yrotation Xrotation
					JOINT RightArm
					{
						OFFSET -2.700000 1.550000 -0.730000
						CHANNELS 3 Zrotation Yrotation Xrotation
						JOINT RightForeArm
						{
							OFFSET -5.450000 0.000000 0.000000
							CHANNELS 3 Zrotation Yrotation Xrotation
							JOINT RightHand
							{
								OFFSET -3.450000 0.000000 0.000000
								CHANNELS 3 Zrotation Yrotation Xrotation
								JOINT RightHandIndex1
								{
									OFFSET -0.750000 0.000000 0.000000
									CHANNELS 3 Zrotation Yrotation Xrotation
									End Site
									{
										OFFSET 0.000000 0.000000 0.000000
									}
								}
							}
						}
					}
				}
			}
		}
	}
}
MOTION
Frames: 8
Frame Time: 0.016667
1.133880 17.021410 -0.759680 -4.654112 -4.942949 -4.509385 -15.040903 12.916521 2.458659 0.410978 -0.890337 -5.185347 -7.383041 6.697774 16.715816 -0.767372 5.179451 2.991089 0.208170 -0.222680 0.342370 18.674741 -9.048292 4.741277 0.030162 7.882671 -53.452834 2.993778 -6.642391 33.238484 -0.147881 -4.042140 2.955015 0.099670 0.409310 0.208920 -4.342056 -2.795372 -7.894334 22.055200 -10.017593 16.570078 -6.366562 -7.174720 8.577552 1.641490 -1.723677 -7.849154 -5.818908 2.462668 33.070712 -13.170520 8.046250 -9.015770 -16.152868 -13.017325 0.327732 -29.736903 -27.562135 -1.464280 33.062366 -62.532349 -19.738070 -3.923339 2.300770 0.564960 0.416760 -0.244480 0.031720 12.548315 9.055050 6.439054 57.870393 6.740840 -15.098725 -12.550280 69.159528 -11.299148 1.274459 -1.354536 -0.486110 0.376300 0.242830 -0.474560 
1.135880 17.023010 -0.759840 -4.678676 -4.948348 -4.494353 -15.040130 12.908105 2.452342 0.388480 -0.848970 -5.093637 -7.327593 6.660112 16.526856 -0.770842 5.162469 2.998518 0.206460 -0.223540 0.338430 18.679155 -9.040385 4.749507 0.032653 7.914824 -53.571364 2.981605 -6.670157 33.384823 -0.149519 -4.068638 2.946758 0.100620 0.412300 0.207680 -4.350861 -2.788289 -7.889688 22.201948 -10.059714 16.507268 -6.438756 -7.207558 8.627311 1.632892 -1.790556 -7.847998 -5.929944 2.501955 33.002150 -13.141260 8.031680 -8.949940 -16.024550 -12.923124 0.318904 -29.841385 -27.641876 -1.411959 33.815255 -62.549497 -20.178139 -3.922806 2.287710 0.561910 0.419090 -0.248250 0.031980 12.432146 8.985374 6.436094 57.869287 6.751508 -15.073280 -12.596015 69.496810 -11.400527 1.270269 -1.357154 -0.487130 0.377420 0.245050 -0.473880 
1.139390 17.025700 -0.759520 -4.718721 -4.931041 -4.466922 -15.038729 12.895188 2.443249 0.347978 -0.772551 -4.915047 -7.228037 6.586922 16.153136 -0.773917 5.132405 3.014561 0.203370 -0.226060 0.333420 18.686067 -9.030978 4.757984 0.006308 7.939182 -53.732007 3.010792 -6.731264 33.583122 -0.153409 -4.111478 2.931087 0.100920 0.419940 0.209430 -4.365138 -2.774640 -7.880343 22.450539 -10.129554 16.373105 -6.561303 -7.272425 8.704302 1.622765 -1.880660 -7.839755 -6.076246 2.530894 32.880510 -13.109790 7.997400 -8.801250 -15.833357 -12.754187 0.301635 -30.008240 -27.779061 -1.309792 35.083775 -62.587678 -20.918876 -3.922218 2.265211 0.556880 0.424060 -0.252020 0.034530 12.253698 8.838750 6.428702 57.888580 6.750769 -15.040935 -12.787069 70.090094 -11.646202 1.265384 -1.361370 -0.488340 0.378830 0.246350 -0.470160 
1.143640 17.029190 -0.759030 -4.746546 -4.875154 -4.454740 -15.037879 12.881617 2.435809 0.263680 -0.658527 -4.633562 -7.083732 6.484384 15.614825 -0.777980 5.089710 3.036680 0.200250 -0.228190 0.327990 18.693310 -9.022025 4.762688 -0.052830 7.936053 -53.898472 3.050783 -6.816531 33.840103 -0.158141 -4.168463 2.912382 0.101390 0.428280 0.209380 -4.379604 -2.761509 -7.869770 22.716954 -10.203236 16.211682 -6.702986 -7.350956 8.812349 1.613299 -1.967952 -7.837330 -6.225470 2.555427 32.770076 -13.071990 7.966180 -8.624890 -15.584348 -12.570175 0.284825 -30.212802 -27.985255 -1.165225 36.606982 -62.601524 -21.799464 -3.920775 2.236434 0.550880 0.429820 -0.257550 0.037120 12.015207 8.664710 6.428129 57.944814 6.733804 -15.021134 -13.141733 70.786706 -12.023028 1.257709 -1.364100 -0.490020 0.381090 0.247530 -0.466690 
1.148220 17.033140 -0.758720 -4.752866 -4.762166 -4.476823 -15.038230 12.872261 2.433522 0.135204 -0.520127 -4.267036 -6.899088 6.363293 14.983597 -0.781395 5.043330 3.060231 0.198030 -0.230400 0.322940 18.698807 -9.017021 4.758242 -0.114041 7.891860 -54.011751 3.038697 -6.898541 34.125050 -0.163848 -4.229712 2.892717 0.101090 0.435860 0.210940 -4.389693 -2.755469 -7.859272 22.947564 -10.284116 16.061629 -6.831788 -7.449176 8.933601 1.608972 -2.037100 -7.838369 -6.353484 2.565376 32.693864 -13.056590 7.938770 -8.450370 -15.340963 -12.409105 0.273485 -30.386621 -28.213490 -1.011379 38.257559 -62.599960 -22.750899 -3.919305 2.206359 0.545250 0.435740 -0.262780 0.039890 11.774579 8.494925 6.431216 57.968470 6.704837 -15.012957 -13.606017 71.488306 -12.474549 1.247978 -1.365787 -0.490340 0.381800 0.248940 -0.463760 
1.152680 17.037210 -0.758470 -4.724447 -4.612358 -4.532179 -15.039172 12.866344 2.437502 -0.032481 -0.363828 -3.831816 -6.688225 6.232919 14.291269 -0.784504 4.996524 3.083387 0.195400 -0.232770 0.317170 18.702642 -9.017772 4.744132 -0.192743 7.806217 -54.047851 3.013980 -6.980189 34.403842 -0.169122 -4.291291 2.873131 0.100950 0.442010 0.211940 -4.396276 -2.752380 -7.849675 23.125063 -10.356928 15.937707 -6.951641 -7.552822 9.035893 1.610700 -2.072962 -7.826463 -6.428041 2.570326 32.653832 -13.045640 7.933890 -8.288460 -15.180561 -12.273644 0.249842 -30.432903 -28.421615 -0.867920 39.798295 -62.660624 -23.652061 -3.917892 2.177700 0.540410 0.441220 -0.267970 0.041900 11.607151 8.320919 6.431067 57.947595 6.647012 -15.022154 -14.203082 72.146819 -13.000269 1.236842 -1.364385 -0.490970 0.381620 0.250810 -0.461800 
1.156270 17.039810 -0.757840 -4.658857 -4.454232 -4.585453 -15.042012 12.860737 2.445884 -0.218380 -0.218127 -3.420599 -6.504797 6.118044 13.648079 -0.785782 4.957174 3.102609 0.194850 -0.233270 0.316560 18.704181 -9.018777 4.727880 -0.249648 7.724032 -54.054385 2.915376 -7.040455 34.726356 -0.176182 -4.354661 2.851693 0.101310 0.444920 0.214490 -4.396532 -2.752450 -7.843776 23.209554 -10.389017 15.821001 -7.022715 -7.635100 9.115081 1.630678 -2.048154 -7.783513 -6.387390 2.515916 32.607622 -13.157990 7.977730 -8.179430 -15.047926 -12.094006 0.196010 -30.471028 -28.671213 -0.672629 41.185438 -62.767296 -24.468444 -3.916923 2.151233 0.535630 0.446690 -0.270850 0.042720 11.435775 8.076668 6.401918 57.947550 6.618141 -14.999964 -14.939964 72.699629 -13.578707 1.225741 -1.361266 -0.490190 0.379360 0.250580 -0.461480 
1.159660 17.041350 -0.756940 -4.593841 -4.300816 -4.641028 -15.044422 12.858241 2.453679 -0.399438 -0.096343 -3.075942 -6.290788 6.013192 13.149799 -0.787858 4.924535 3.118152 0.194530 -0.232910 0.314830 18.704931 -9.024271 4.709497 -0.257150 7.654215 -54.002041 2.763185 -7.078285 35.060249 -0.183158 -4.415266 2.831543 0.102680 0.447960 0.217170 -4.395783 -2.752013 -7.836907 23.283193 -10.411567 15.723195 -7.074195 -7.706060 9.160252 1.651020 -2.008052 -7.727177 -6.310676 2.456984 32.537262 -13.250150 8.016820 -8.090650 -14.963910 -11.909464 0.129815 -30.480043 -28.898322 -0.476287 42.299555 -62.914417 -25.139707 -3.916388 2.129785 0.531410 0.452220 -0.273400 0.044260 11.313955 7.818833 6.362801 57.917978 6.566345 -14.999516 -15.847493 73.223949 -14.260137 1.212729 -1.354542 -0.489920 0.377240 0.250300 -0.460900 
